<?xml version="1.0" encoding="UTF-8"?>
<!DOCTYPE svg PUBLIC "-//W3C//DTD SVG 1.1//EN" "http://www.w3.org/Graphics/SVG/1.1/DTD/svg11.dtd">
<svg xmlns="http://www.w3.org/2000/svg" version="1.1" width="512px" height="512px" style="shape-rendering:geometricPrecision; text-rendering:geometricPrecision; image-rendering:optimizeQuality; fill-rule:evenodd; clip-rule:evenodd" xmlns:xlink="http://www.w3.org/1999/xlink">
<g><path style="opacity:0.996" fill="#feb6b1" d="M 232.5,-0.5 C 247.833,-0.5 263.167,-0.5 278.5,-0.5C 368.144,10.3879 435.644,54.7213 481,132.5C 497.695,163.971 507.861,197.304 511.5,232.5C 511.5,247.833 511.5,263.167 511.5,278.5C 500.612,368.144 456.279,435.644 378.5,481C 347.029,497.695 313.696,507.861 278.5,511.5C 263.167,511.5 247.833,511.5 232.5,511.5C 142.856,500.612 75.3562,456.279 30,378.5C 13.3053,347.029 3.1386,313.696 -0.5,278.5C -0.5,263.167 -0.5,247.833 -0.5,232.5C 10.3875,142.857 54.7208,75.3573 132.5,30C 163.971,13.3053 197.304,3.1386 232.5,-0.5 Z"/></g>
<g><path style="opacity:1" fill="#060404" d="M 183.5,102.5 C 183.5,106.833 183.5,111.167 183.5,115.5C 195.012,115.828 206.346,115.495 217.5,114.5C 214.675,99.5693 220.675,92.0693 235.5,92C 245.384,96.2691 249.05,103.769 246.5,114.5C 257.654,115.495 268.988,115.828 280.5,115.5C 280.5,111.167 280.5,106.833 280.5,102.5C 284.814,92.1844 292.147,89.3511 302.5,94C 305.106,95.9384 306.939,98.4384 308,101.5C 308.499,106.155 308.666,110.821 308.5,115.5C 317.839,115.334 327.173,115.5 336.5,116C 339.409,117.406 341.409,119.572 342.5,122.5C 342.333,150.835 342.5,179.169 343,207.5C 343.717,206.956 344.217,206.289 344.5,205.5C 353.533,192.159 365.199,189.325 379.5,197C 390.757,207.234 392.59,219.067 385,232.5C 371.014,256.468 357.014,280.468 343,304.5C 342.667,340.833 342.333,377.167 342,413.5C 340.749,416.381 338.583,418.214 335.5,419C 266.5,419.667 197.5,419.667 128.5,419C 125.417,418.214 123.251,416.381 122,413.5C 121.333,315.833 121.333,218.167 122,120.5C 123.543,118.622 125.376,117.122 127.5,116C 136.827,115.5 146.161,115.334 155.5,115.5C 154.872,109.238 155.705,103.238 158,97.5C 165.307,89.8969 172.974,89.5636 181,96.5C 182.122,98.4068 182.955,100.407 183.5,102.5 Z"/></g>
<g><path style="opacity:1" fill="#9fabc5" d="M 166.5,99.5 C 168.857,99.3367 171.19,99.5034 173.5,100C 174.701,100.903 175.535,102.069 176,103.5C 176.667,113.5 176.667,123.5 176,133.5C 173.441,136.349 170.274,137.183 166.5,136C 164.741,134.992 163.574,133.492 163,131.5C 162.333,122.5 162.333,113.5 163,104.5C 163.997,102.677 165.164,101.01 166.5,99.5 Z"/></g>
<g><path style="opacity:1" fill="#a1b1cb" d="M 228.5,99.5 C 232.287,98.8144 235.454,99.8144 238,102.5C 238.667,112.833 238.667,123.167 238,133.5C 234,137.5 230,137.5 226,133.5C 225.333,123.167 225.333,112.833 226,102.5C 227.045,101.627 227.878,100.627 228.5,99.5 Z"/></g>
<g><path style="opacity:1" fill="#9facc5" d="M 290.5,99.5 C 295.439,98.3519 298.939,100.019 301,104.5C 301.667,113.5 301.667,122.5 301,131.5C 298.975,136.145 295.475,137.645 290.5,136C 289.299,135.097 288.465,133.931 288,132.5C 287.333,122.833 287.333,113.167 288,103.5C 288.662,102.016 289.496,100.683 290.5,99.5 Z"/></g>
<g><path style="opacity:1" fill="#ad7c79" d="M 183.5,102.5 C 184.483,106.298 184.817,110.298 184.5,114.5C 195.5,114.5 206.5,114.5 217.5,114.5C 206.346,115.495 195.012,115.828 183.5,115.5C 183.5,111.167 183.5,106.833 183.5,102.5 Z"/></g>
<g><path style="opacity:1" fill="#ae7d7a" d="M 280.5,102.5 C 280.5,106.833 280.5,111.167 280.5,115.5C 268.988,115.828 257.654,115.495 246.5,114.5C 257.5,114.5 268.5,114.5 279.5,114.5C 279.183,110.298 279.517,106.298 280.5,102.5 Z"/></g>
<g><path style="opacity:1" fill="#d5e1fd" d="M 183.5,132.5 C 184.477,129.713 184.81,126.713 184.5,123.5C 195.5,123.5 206.5,123.5 217.5,123.5C 217.187,127.042 217.521,130.375 218.5,133.5C 223.299,144.559 230.966,147.059 241.5,141C 243.494,138.842 244.828,136.342 245.5,133.5C 246.479,130.375 246.813,127.042 246.5,123.5C 257.5,123.5 268.5,123.5 279.5,123.5C 279.19,126.713 279.523,129.713 280.5,132.5C 283.713,142.606 290.38,146.106 300.5,143C 307.55,138.039 310.216,131.205 308.5,122.5C 317.418,122.183 326.251,122.516 335,123.5C 335.667,156.167 335.667,188.833 335,221.5C 314.253,257.997 293.253,294.33 272,330.5C 270.557,345.483 269.39,360.483 268.5,375.5C 233.165,375.333 197.832,375.5 162.5,376C 159.833,378 159.833,380 162.5,382C 199.833,382.667 237.167,382.667 274.5,382C 287.925,373.538 301.092,364.705 314,355.5C 320.747,343.004 327.747,330.671 335,318.5C 335.829,349.405 335.662,380.238 334.5,411C 265.93,411.831 197.43,411.665 129,410.5C 128.333,314.833 128.333,219.167 129,123.5C 137.749,122.516 146.582,122.183 155.5,122.5C 153.784,131.205 156.45,138.039 163.5,143C 173.658,146.088 180.324,142.588 183.5,132.5 Z"/></g>
<g><path style="opacity:1" fill="#aaa1ae" d="M 280.5,132.5 C 279.523,129.713 279.19,126.713 279.5,123.5C 268.5,123.5 257.5,123.5 246.5,123.5C 246.813,127.042 246.479,130.375 245.5,133.5C 245.5,129.833 245.5,126.167 245.5,122.5C 257.167,122.5 268.833,122.5 280.5,122.5C 280.5,125.833 280.5,129.167 280.5,132.5 Z"/></g>
<g><path style="opacity:1" fill="#aba2af" d="M 218.5,133.5 C 217.521,130.375 217.187,127.042 217.5,123.5C 206.5,123.5 195.5,123.5 184.5,123.5C 184.81,126.713 184.477,129.713 183.5,132.5C 183.5,129.167 183.5,125.833 183.5,122.5C 195.167,122.5 206.833,122.5 218.5,122.5C 218.5,126.167 218.5,129.833 218.5,133.5 Z"/></g>
<g><path style="opacity:1" fill="#845f5c" d="M 342.5,122.5 C 343.167,150.167 343.833,177.833 344.5,205.5C 344.217,206.289 343.717,206.956 343,207.5C 342.5,179.169 342.333,150.835 342.5,122.5 Z"/></g>
<g><path style="opacity:1" fill="#000000" d="M 162.5,185.5 C 208.835,185.333 255.168,185.5 301.5,186C 304.167,188 304.167,190 301.5,192C 254.83,192.833 208.163,192.667 161.5,191.5C 160.15,189.217 160.483,187.217 162.5,185.5 Z"/></g>
<g><path style="opacity:1" fill="#f7505a" d="M 360.5,200.5 C 375.824,199.325 382.99,206.325 382,221.5C 379.921,225.993 377.588,230.326 375,234.5C 365.22,229.031 355.72,223.198 346.5,217C 349.231,209.775 353.898,204.275 360.5,200.5 Z"/></g>
<g><path style="opacity:1" fill="#f4b010" d="M 341.5,224.5 C 351.563,229.702 361.563,235.202 371.5,241C 351.874,274.418 332.374,307.918 313,341.5C 311.987,339.154 310.321,337.487 308,336.5C 305.953,337.609 303.787,338.276 301.5,338.5C 302.18,330.839 299.18,328.839 292.5,332.5C 291.727,330.187 291.06,327.854 290.5,325.5C 288.219,324.815 285.886,324.649 283.5,325C 303.236,291.69 322.569,258.19 341.5,224.5 Z"/></g>
<g><path style="opacity:1" fill="#141213" d="M 162.5,232.5 C 208.835,232.333 255.168,232.5 301.5,233C 304.167,235.333 304.167,237.667 301.5,240C 255.167,240.667 208.833,240.667 162.5,240C 159.901,237.421 159.901,234.921 162.5,232.5 Z"/></g>
<g><path style="opacity:1" fill="#0a0603" d="M 341.5,234.5 C 348.986,236.326 355.819,239.659 362,244.5C 362.667,245.833 362.667,247.167 362,248.5C 345.959,276.082 329.793,303.582 313.5,331C 312.167,331.667 310.833,331.667 309.5,331C 304.5,328.167 299.5,325.333 294.5,322.5C 293.447,321.562 292.78,320.395 292.5,319C 308.712,290.74 325.045,262.573 341.5,234.5 Z"/></g>
<g><path style="opacity:1" fill="#f99325" d="M 344.5,243.5 C 348.226,243.899 351.226,245.566 353.5,248.5C 339.247,272.67 325.247,297.003 311.5,321.5C 307.67,321.936 304.337,320.602 301.5,317.5C 315.845,292.806 330.178,268.139 344.5,243.5 Z"/></g>
<g><path style="opacity:1" fill="#000000" d="M 168.5,280.5 C 210.839,280.167 253.172,280.5 295.5,281.5C 296.767,283.371 296.767,285.204 295.5,287C 253.167,287.667 210.833,287.667 168.5,287C 165.939,284.844 165.939,282.677 168.5,280.5 Z"/></g>
<g><path style="opacity:1" fill="#151314" d="M 162.5,327.5 C 194.502,327.333 226.502,327.5 258.5,328C 260.994,330.244 260.994,332.577 258.5,335C 226.5,335.667 194.5,335.667 162.5,335C 159.901,332.421 159.901,329.921 162.5,327.5 Z"/></g>
<g><path style="opacity:1" fill="#f5c788" d="M 282.5,333.5 C 284.443,335.971 285.443,338.971 285.5,342.5C 288.39,342.722 291.057,342.055 293.5,340.5C 294.214,343.027 294.88,345.527 295.5,348C 298.687,348.108 301.687,347.275 304.5,345.5C 306.306,347.697 306.639,350.03 305.5,352.5C 301.402,355.298 297.235,357.964 293,360.5C 288.827,356.829 283.993,354.329 278.5,353C 277.266,347.144 277.599,341.311 279.5,335.5C 280.739,335.058 281.739,334.391 282.5,333.5 Z"/></g>
<g><path style="opacity:1" fill="#525455" d="M 276.5,360.5 C 280.517,360.342 283.517,362.009 285.5,365.5C 282.754,367.623 279.921,369.623 277,371.5C 276.501,367.848 276.335,364.182 276.5,360.5 Z"/></g>
</svg>
